<svg xmlns="http://www.w3.org/2000/svg" xmlns:xlink="http://www.w3.org/1999/xlink" version="1.1" x="0px" y="0px" viewBox="0 0 100 125" enable-background="new 0 0 100 100" xml:space="preserve"><g><g><path d="M51.121,14.5C33.662,14.5,19.5,29.5,19.5,48c0,16.64,11.451,30.44,26.451,33.05c0.881,0.16,1.771,0.271,2.67,0.34    c1.57-3.47,5.071-5.899,9.131-5.899c2.689,0,5.129,1.069,6.92,2.79c0.82-0.41,1.609-0.851,2.379-1.34    C76.441,71.14,82.752,60.35,82.752,48C82.752,29.5,68.592,14.5,51.121,14.5z"/></g></g><g><g><path fill="#000000" d="M67.621,87.24c-0.82,4.71-4.93,8.3-9.869,8.3c-5.531,0-10.02-4.5-10.02-10.03    c0-1.47,0.318-2.859,0.889-4.12c1.57-3.47,5.071-5.899,9.131-5.899c2.689,0,5.129,1.069,6.92,2.79    c1.379,1.31,2.379,3.01,2.83,4.91c0.859-0.171,1.689-0.4,2.49-0.681c-0.5-2.109-1.531-4.02-2.941-5.569    c-2.309-2.521-5.619-4.101-9.299-4.101c-5.41,0-10.03,3.42-11.801,8.21c-0.5,1.36-0.779,2.83-0.779,4.37    c0,6.95,5.629,12.58,12.581,12.58c6.549,0,11.92-4.99,12.52-11.38C69.402,86.88,68.512,87.09,67.621,87.24z"/></g></g><g><path d="M9.291,40.74c2.67-25.23,22.48-36.46,41.481-36.27c2.33,0.02,4.67,0.2,6.98,0.58c3.16,0.51,6.26,1.31,9.26,2.46   c1.43,0.55,2.82,1.16,4.17,1.86c11.189,5.65,19.859,16.15,20.93,31.21l3.77,15.92c0,2.24-0.709,4.1-2.939,4.47   c-0.83,2.28-2.801,7.101-6.07,12.04c-4.719,7.13-10.379,11.76-16.6,13.61c-0.869,0.26-1.76,0.47-2.65,0.62   c-0.82,4.71-4.93,8.3-9.869,8.3c-5.531,0-10.02-4.5-10.02-10.03c0-1.47,0.318-2.859,0.889-4.12c1.57-3.47,5.071-5.899,9.131-5.899   c2.689,0,5.129,1.069,6.92,2.79c1.379,1.31,2.379,3.01,2.83,4.91c0.859-0.171,1.689-0.4,2.49-0.681   c10.41-3.649,16.43-16.029,18.639-21.47h-3.059V40.58h2.789c-0.9-10.88-7.02-22.14-18.721-28.08c-1.199-0.62-2.479-1.18-3.809-1.67   c-2.631-0.97-5.51-1.72-8.6-2.16c-2.051-0.28-4.211-0.43-6.48-0.45h-0.301c-16.99,0-34.701,9.99-37.371,32.36h3.051v20.46h-5.541   c-2.629,0-4.77-2.03-4.77-4.54"/></g><g><path d="M13.076,40.577"/></g><text x="0" y="115" fill="#000000" font-size="5px" font-weight="bold" font-family="'Helvetica Neue', Helvetica, Arial-Unicode, Arial, Sans-serif">Created by Siddharth Dasari</text><text x="0" y="120" fill="#000000" font-size="5px" font-weight="bold" font-family="'Helvetica Neue', Helvetica, Arial-Unicode, Arial, Sans-serif">from the Noun Project</text></svg>