<svg xmlns="http://www.w3.org/2000/svg" xmlns:xlink="http://www.w3.org/1999/xlink" version="1.0" x="0px" y="0px" viewBox="0 0 26 26" style="enable-background:new 0 0 26 26;" xml:space="preserve"><g><circle cx="16" cy="14" r="2"></circle><circle cx="8" cy="14" r="2"></circle><path d="M22,10h-0.161C21.843,3.004,17.174,0,12,0C6.419,0,1.259,3.465,2.214,11.717C1.469,12.401,1,13.522,1,14.84   c0,1.872,1.793,3.478,3.182,3.987c0.45,1.484,1.357,2.828,2.65,3.917c0.188,0.157,0.416,0.234,0.643,0.234   c0.285,0,0.568-0.121,0.766-0.356c0.355-0.423,0.301-1.054-0.122-1.409c-1.144-0.962-1.864-2.114-2.141-3.424   c-0.091-0.431-0.53-0.755-0.969-0.793C4.56,16.957,3,15.862,3,14.84c0-0.473,0.095-0.878,0.242-1.188C3.425,13.865,3.697,14,4,14   c0.552,0,1-0.447,1-1v-0.971c0.037-0.631,0.127-1.284,0.286-1.927C6.658,9.637,7.811,10.393,9,6.89   c1.744,5.182,6.254,2.193,9.353,2.052c0.357,0.878,0.579,1.9,0.647,3.087V13c0,0.553,0.447,1,1,1v2.485   C19.629,16.793,19.242,17,19,17c-0.473,0-0.881,0.331-0.979,0.793c-0.188,0.893-0.591,1.721-1.193,2.463   c-0.349,0.429-0.284,1.059,0.145,1.406c0.43,0.351,1.059,0.284,1.406-0.145c0.657-0.808,1.137-1.697,1.43-2.652   c0.51-0.162,1.027-0.472,1.497-0.865h0.687c-0.548,2.776-2.095,4.081-2.394,4.304c-0.265,0.113-1.758,0.677-4.829,0.845   c-0.207-1.109-1.362-1.962-2.77-1.962c-1.554,0-2.813,1.036-2.813,2.313s1.259,2.313,2.813,2.313c0.982,0,1.843-0.415,2.347-1.041   c4.156-0.16,5.939-1.021,6.097-1.106c0.125-0.083,2.766-1.909,3.267-6.233c0.731-0.545,1.195-1.429,1.195-2.433v-2   C24.906,11.343,23.656,10,22,10z"></path></g></svg>