<svg xmlns="http://www.w3.org/2000/svg" xmlns:xlink="http://www.w3.org/1999/xlink" version="1.1" x="0px" y="0px" viewBox="0 0 100 125" enable-background="new 0 0 100 100" xml:space="preserve"><path d="M48.554,11.441c-11.499,0-20.82,9.321-20.82,20.819c0,5.649,2.253,10.768,5.905,14.52c0.28,0.005,0.599,0.005,0.97,0.005  h7.325c0.417-0.751,1.209-1.23,2.09-1.23h3.401c1.324,0,2.402,1.077,2.402,2.401c0,1.326-1.078,2.404-2.402,2.404h-3.401  c-0.881,0-1.672-0.48-2.09-1.233h-5.578c3.429,2.484,7.641,3.952,12.198,3.952c11.498,0,20.819-9.32,20.819-20.818  C69.373,20.762,60.052,11.441,48.554,11.441z"/><path d="M72.212,24.551h-0.258c-0.729-7.155-4.554-12.29-10.997-14.981c-0.018-0.838-0.556-1.609-1.401-1.873  c-3.19-0.994-6.838-1.499-10.841-1.499c-4.003,0-7.651,0.504-10.841,1.499c-0.826,0.258-1.36,0.999-1.403,1.815  c-6.151,2.523-9.943,7.254-10.972,13.826c-2.671,0.19-4.781,2.412-4.781,5.132v6.942c0,2.845,2.306,5.151,5.151,5.151h0.291  c0.608,1.146,1.539,2.812,2.672,4.549c2.159,3.311,2.461,3.389,5.776,3.389h7.731c0.231,0.713,0.893,1.232,1.683,1.232h3.401  c0.981,0,1.777-0.796,1.777-1.778c0-0.98-0.796-1.776-1.777-1.776h-3.401c-0.791,0-1.452,0.519-1.683,1.231h-7.731  c-2.975,0-2.975,0-4.862-2.893c-1.182-1.812-2.137-3.539-2.726-4.661V24.022c0.644-4.661,3.002-10.166,9.983-13.039  c0.377,0.403,0.907,0.643,1.466,0.643c0.198,0,0.4-0.029,0.599-0.091c2.803-0.874,6.047-1.317,9.645-1.317  c3.597,0,6.842,0.443,9.644,1.317c0.742,0.231,1.511,0.004,2.021-0.512c7.18,2.995,9.421,8.787,9.955,13.534  c-0.4,0.015-0.724,0.34-0.724,0.745v3.635c0,0.414,0.336,0.75,0.75,0.75h1.851c0.413,0,0.749-0.336,0.749-0.75V25.3  C72.961,24.886,72.625,24.551,72.212,24.551z"/><path d="M24.147,93.315v-7.189h2.382l-0.001,7.189h46.71l0.001-7.193h2.302v7.193h13.451v-8.52c0-13.824-6.709-27.374-20.067-27.374  l-38.534-0.021c-12.173,0-19.799,12.019-19.799,27.015v8.899H24.147z"/><text x="0" y="115" fill="#000000" font-size="5px" font-weight="bold" font-family="'Helvetica Neue', Helvetica, Arial-Unicode, Arial, Sans-serif">Created by Bybzee</text><text x="0" y="120" fill="#000000" font-size="5px" font-weight="bold" font-family="'Helvetica Neue', Helvetica, Arial-Unicode, Arial, Sans-serif">from the Noun Project</text></svg>