<svg xmlns="http://www.w3.org/2000/svg" xmlns:xlink="http://www.w3.org/1999/xlink" version="1.1" x="0px" y="0px" viewBox="0 0 100 100" enable-background="new 0 0 100 100" xml:space="preserve"><g><path d="M85,45.2c-1.1,0-2.2,0.4-2.8,1.2C80.5,39.9,77.4,34,73,29.2c-6.4-7-14.9-10.8-23.8-10.8s-17.4,3.8-23.8,10.8   c-4.3,4.7-7.4,10.4-9,16.7c-0.5-0.4-1.2-0.7-1.9-0.7c-1.9,0-3.4,1.7-3.4,3.8v10.6c0,2.1,1.6,3.8,3.5,3.8c1.9,0,3.5-1.7,3.5-3.8V49   c0,0-0.1,0-0.1-0.1C21,32.6,33.8,20.5,49.2,20.5C65.7,20.5,79,34.5,81,52.7v6.9c0,2.1,1.9,3.8,4,3.8c2.1,0,4-1.7,4-3.8V49   C89,46.9,87.1,45.2,85,45.2z"></path><path d="M49.3,23.6c-16,0-29,13-29,29c0,16,13,29,29,29c10.9,0,20.4-6,25.4-14.9c-0.5,0.6-1,1.1-1.5,1.6c-2.7,2.5-6.1,4.4-10,5.5   c-3.4,1-6.6,1.6-8.9,1.6c-0.3,0.8-1,1.6-1.8,1.6h-5.5c-1.1,0-2-1.3-2-2.5c0-1.2,0.9-2.5,2-2.5h5.5c0.9,0,1.7,0.6,1.9,1.6   c2.3-0.1,5.3-0.4,8.4-1.3c7.4-2.2,12.4-6.8,14.9-13.7c0.4-1.9,0.6-3.9,0.6-6C78.3,36.5,65.3,23.6,49.3,23.6z"></path></g></svg>