<?xml version="1.0" ?><!DOCTYPE svg  PUBLIC '-//W3C//DTD SVG 1.1//EN'  'http://www.w3.org/Graphics/SVG/1.1/DTD/svg11.dtd'><svg height="16px" id="Layer_1" style="enable-background:new 0 0 16 16;" version="1.1" viewBox="0 0 16 16" width="16px" xml:space="preserve" xmlns="http://www.w3.org/2000/svg" xmlns:xlink="http://www.w3.org/1999/xlink"><path d="M6,12c-1.104,0-2,0.896-2,2s0.896,2,2,2s2-0.896,2-2S7.104,12,6,12z M12,12c-1.104,0-2,0.896-2,2s0.896,2,2,2s2-0.896,2-2  S13.104,12,12,12z M15,2H4.07L3.8,1C3.594,0.102,3.031,0,2.766,0H1C0.448,0,0,0.448,0,1s0.448,1,1,1h1l2,7.203  C4.188,9.797,4.633,10,5,10h8c0.414,0,0.781-0.211,1-0.781L15.715,4C15.867,3.516,16,3.25,16,3C16,2.336,15.43,2,15,2z M12.295,8  H5.742L4.631,4h8.979L12.295,8z"/></svg>