<?xml version="1.0" encoding="utf-8"?>
<!-- Generator: Adobe Illustrator 16.0.0, SVG Export Plug-In . SVG Version: 6.00 Build 0)  -->
<!DOCTYPE svg PUBLIC "-//W3C//DTD SVG 1.1//EN" "http://www.w3.org/Graphics/SVG/1.1/DTD/svg11.dtd">
<svg version="1.1" id="Layer_1" xmlns="http://www.w3.org/2000/svg" xmlns:xlink="http://www.w3.org/1999/xlink" x="0px" y="0px"
	 width="24px" height="24px" viewBox="0 0 24 24" enable-background="new 0 0 24 24" xml:space="preserve">
<g>
	<g>
		<g>
			<path d="M17.714,22H6.286C3.923,22,2,20.077,2,17.714V6.286C2,3.923,3.923,2,6.286,2h7.142c0.79,0,1.43,0.64,1.43,1.429
				c0,0.789-0.64,1.428-1.43,1.428H6.286c-0.79,0-1.429,0.642-1.429,1.429v11.428c0,0.788,0.64,1.429,1.429,1.429h11.428
				c0.79,0,1.429-0.641,1.429-1.429v-4.286c0-0.788,0.64-1.428,1.43-1.428C21.361,12,22,12.64,22,13.428v4.286
				C22,20.077,20.077,22,17.714,22z"/>
		</g>
	</g>
	<g>
		<g>
			<path d="M13.666,16.047c-0.5,0-0.984-0.199-1.344-0.56L8.51,11.678c-0.743-0.744-0.743-1.949,0-2.692
				c0.745-0.745,1.95-0.745,2.695,0l2.023,2.023l4.964-7.793c0.509-0.919,1.671-1.252,2.591-0.741c0.92,0.511,1.25,1.672,0.74,2.59
				l-6.191,10c-0.289,0.521-0.807,0.879-1.398,0.959C13.842,16.042,13.756,16.047,13.666,16.047z"/>
		</g>
	</g>
</g>
</svg>
