<?xml version="1.0" encoding="utf-8"?>
<!-- Generator: Adobe Illustrator 16.0.0, SVG Export Plug-In . SVG Version: 6.00 Build 0)  -->
<!DOCTYPE svg PUBLIC "-//W3C//DTD SVG 1.1//EN" "http://www.w3.org/Graphics/SVG/1.1/DTD/svg11.dtd">
<svg version="1.1" id="Layer_1" xmlns="http://www.w3.org/2000/svg" xmlns:xlink="http://www.w3.org/1999/xlink" x="0px" y="0px"
	 width="24px" height="24px" viewBox="0 0 24 24" enable-background="new 0 0 24 24" xml:space="preserve">
<path d="M12,2C6.477,2,2,6.478,2,12c0,5.521,4.477,10,10,10c5.523,0,10-4.479,10-10C22,6.478,17.523,2,12,2z M16.634,14.866
	c0.488,0.487,0.488,1.278,0,1.768C16.391,16.878,16.07,17,15.75,17s-0.641-0.122-0.884-0.366L12,13.768l-2.866,2.866
	C8.89,16.878,8.57,17,8.25,17s-0.64-0.122-0.884-0.366c-0.489-0.487-0.489-1.278,0-1.768L10.232,12L7.366,9.134
	c-0.489-0.489-0.489-1.279,0-1.768c0.489-0.489,1.279-0.489,1.768,0L12,10.232l2.866-2.866c0.487-0.489,1.278-0.489,1.768,0
	c0.489,0.489,0.488,1.279,0,1.768L13.768,12L16.634,14.866z"/>
</svg>
