<?xml version="1.0" encoding="utf-8"?>
<!-- Generator: Adobe Illustrator 16.0.0, SVG Export Plug-In . SVG Version: 6.00 Build 0)  -->
<!DOCTYPE svg PUBLIC "-//W3C//DTD SVG 1.1//EN" "http://www.w3.org/Graphics/SVG/1.1/DTD/svg11.dtd">
<svg version="1.1" id="Capa_1" xmlns="http://www.w3.org/2000/svg" xmlns:xlink="http://www.w3.org/1999/xlink" x="0px" y="0px"
	 width="300px" height="300px" viewBox="450 0 300 300" enable-background="new 450 0 300 300" xml:space="preserve">
<g>
	<path d="M710.892,259.071c6.069,0,11.328-2.004,15.798-5.961l-76.494-76.497c-1.836,1.314-3.615,2.593-5.295,3.808
		c-5.724,4.218-10.371,7.509-13.938,9.867c-3.567,2.363-8.313,4.772-14.238,7.232c-5.928,2.463-11.451,3.69-16.575,3.69H600h-0.149
		c-5.124,0-10.647-1.228-16.575-3.69c-5.928-2.46-10.674-4.869-14.238-7.232c-3.566-2.358-8.211-5.649-13.938-9.867
		c-1.596-1.17-3.366-2.454-5.28-3.828L473.31,253.11c4.47,3.957,9.732,5.961,15.801,5.961H710.892z"/>
	<path d="M480.222,128.442c-5.725-3.815-10.8-8.187-15.219-13.109v116.385l67.422-67.422
		C518.937,154.878,501.558,142.941,480.222,128.442z"/>
	<path d="M719.934,128.442c-20.523,13.891-37.965,25.849-52.329,35.88L735,231.72V115.332
		C730.68,120.156,725.658,124.524,719.934,128.442z"/>
	<path d="M710.892,46.929H489.111c-7.736,0-13.686,2.613-17.853,7.833c-4.17,5.223-6.252,11.754-6.252,19.587
		c0,6.327,2.763,13.182,8.286,20.568c5.522,7.383,11.399,13.182,17.628,17.399c3.413,2.412,13.71,9.57,30.888,21.472
		c9.272,6.426,17.337,12.026,24.267,16.859c5.907,4.116,11.001,7.681,15.207,10.639c0.483,0.339,1.242,0.882,2.25,1.602
		c1.086,0.78,2.46,1.771,4.155,2.994c3.264,2.361,5.976,4.269,8.136,5.727c2.157,1.458,4.771,3.087,7.836,4.896
		c3.063,1.806,5.952,3.165,8.664,4.067c2.712,0.903,5.224,1.356,7.533,1.356h0.15h0.149c2.311,0,4.821-0.453,7.533-1.356
		c2.712-0.902,5.598-2.259,8.664-4.067c3.063-1.81,5.673-3.441,7.836-4.896c2.16-1.458,4.872-3.365,8.136-5.727
		c1.692-1.224,3.066-2.214,4.152-2.991c1.008-0.723,1.767-1.263,2.253-1.604c3.276-2.28,8.382-5.829,15.246-10.597
		c12.492-8.679,30.888-21.453,55.266-38.373c7.332-5.121,13.458-11.301,18.381-18.53c4.914-7.23,7.377-14.814,7.377-22.749
		c0-6.63-2.388-12.304-7.154-17.028C723.072,49.29,717.421,46.929,710.892,46.929z"/>
</g>
</svg>
