<?xml version="1.0" encoding="utf-8"?>
<!-- Generator: Adobe Illustrator 16.0.0, SVG Export Plug-In . SVG Version: 6.00 Build 0)  -->
<!DOCTYPE svg PUBLIC "-//W3C//DTD SVG 1.1//EN" "http://www.w3.org/Graphics/SVG/1.1/DTD/svg11.dtd">
<svg version="1.1" id="Layer_9" xmlns="http://www.w3.org/2000/svg" xmlns:xlink="http://www.w3.org/1999/xlink" x="0px" y="0px"
	 width="100px" height="100px" viewBox="0 0 100 100" enable-background="new 0 0 100 100" xml:space="preserve">
<path d="M56.846,14.28c-0.365-0.563-0.482-0.944-0.482-0.944l0.174-0.16c0,0,0.338,0.14,0.93,0.382
	c0.279,0.112,0.621,0.248,1.012,0.403c0.385,0.139,0.805,0.302,1.256,0.412c0.221,0.068,0.447,0.137,0.68,0.163
	c0.117,0.016,0.23,0.048,0.346,0.069c0.115,0.008,0.23,0.012,0.346,0.027c0.465,0.062,0.893,0.011,1.361-0.013
	c0.217-0.08,0.459-0.103,0.695-0.204c0.217-0.128,0.5-0.202,0.701-0.366c0.107-0.074,0.217-0.15,0.336-0.225
	c0.123-0.069,0.254-0.124,0.385-0.266l0.828-0.695c0.008-0.011-0.049,0.071-0.021,0.033l0.006-0.006l0.014-0.012l0.027-0.024
	l0.055-0.049l0.109-0.097l0.217-0.191l0.41-0.388c0.258-0.266,0.582-0.473,0.842-0.729c0.256-0.264,0.6-0.427,0.873-0.683
	c0.293-0.231,0.635-0.404,0.965-0.627c0.693-0.327,1.504-0.569,2.229-0.467c0.182,0.019,0.359,0.048,0.533,0.08
	c0.168,0.047,0.326,0.104,0.482,0.163c0.32,0.105,0.596,0.257,0.855,0.406c0.52,0.3,0.932,0.648,1.262,0.984
	c0.328,0.337,0.574,0.665,0.752,0.951c0.186,0.28,0.293,0.527,0.369,0.696c0.063,0.174,0.096,0.268,0.096,0.268l-0.174,0.162
	c0,0-0.373-0.126-0.945-0.365c-0.279-0.112-0.617-0.251-1.006-0.408c-0.375-0.154-0.787-0.324-1.223-0.471
	c-0.217-0.08-0.441-0.163-0.668-0.218c-0.115-0.028-0.229-0.073-0.344-0.107c-0.115-0.023-0.23-0.052-0.346-0.09
	c-0.467-0.153-0.951-0.303-1.549-0.366c-0.275,0.037-0.602,0.025-0.889,0.144c-0.275,0.14-0.59,0.247-0.811,0.495
	c-0.223,0.239-0.477,0.448-0.633,0.753l-0.227,0.454l-0.104,0.229l-0.051,0.113l-0.025,0.058l-0.012,0.027l-0.006,0.014
	l-0.004,0.008c0.023-0.033-0.035,0.053-0.031,0.048l-0.447,0.985c-0.146,0.317-0.482,0.675-0.756,0.991
	c-0.279,0.343-0.652,0.541-0.984,0.81c-0.348,0.244-0.771,0.385-1.16,0.562c-0.826,0.236-1.689,0.278-2.416,0.084
	c-0.371-0.082-0.713-0.19-1.014-0.346c-0.314-0.133-0.586-0.299-0.842-0.459c-0.508-0.337-0.912-0.693-1.23-1.043
	C57.266,14.897,57.025,14.563,56.846,14.28z M92.521,70.125v20.273H7.479V70.125h5.793V47.35l16.324-11.453V47.35l16.322-11.453
	V47.35l16.324-11.453v22.512h5.633l3.059-39.822h9.336l2.678,39.822h6.281v11.717H92.521z M34.137,61.37H21.303v11.848h12.834V61.37
	z M56.252,61.37H43.418v11.848h12.834V61.37z M78.645,61.37H65.811v11.848h12.834V61.37z"/>
</svg>
