<?xml version="1.0" encoding="utf-8"?>
<!-- Generator: Adobe Illustrator 16.0.0, SVG Export Plug-In . SVG Version: 6.00 Build 0)  -->
<!DOCTYPE svg PUBLIC "-//W3C//DTD SVG 1.1//EN" "http://www.w3.org/Graphics/SVG/1.1/DTD/svg11.dtd">
<svg version="1.1" id="Layer_1" xmlns="http://www.w3.org/2000/svg" xmlns:xlink="http://www.w3.org/1999/xlink" x="0px" y="0px"
	 width="24px" height="24px" viewBox="-4 -4 24 24" enable-background="new -4 -4 24 24" xml:space="preserve">
<path d="M17.313,6.75L15.5,4.938V0.5c0-0.688-0.563-1.25-1.25-1.25H13c-0.688,0-1.25,0.563-1.25,1.25v0.691l-2.5-2.498
	C8.908-1.629,8.597-2,8-2C7.404-2,7.091-1.629,6.75-1.306L-1.313,6.75C-1.703,7.156-2,7.453-2,8c0,0.703,0.54,1.25,1.25,1.25H0.5
	v7.5C0.5,17.438,1.063,18,1.75,18H5.5v-6.25c0-0.688,0.563-1.25,1.25-1.25h2.5c0.688,0,1.25,0.563,1.25,1.25V18h3.75
	c0.688,0,1.25-0.563,1.25-1.25v-7.5h1.25C17.461,9.25,18,8.703,18,8C18,7.453,17.702,7.156,17.313,6.75z"/>
</svg>
