<?xml version="1.0" encoding="utf-8"?>
<!-- Generator: Adobe Illustrator 16.0.0, SVG Export Plug-In . SVG Version: 6.00 Build 0)  -->
<!DOCTYPE svg PUBLIC "-//W3C//DTD SVG 1.1//EN" "http://www.w3.org/Graphics/SVG/1.1/DTD/svg11.dtd">
<svg version="1.1" id="Layer_1" xmlns="http://www.w3.org/2000/svg" xmlns:xlink="http://www.w3.org/1999/xlink" x="0px" y="0px"
	 width="24px" height="24px" viewBox="0 0 24 24" enable-background="new 0 0 24 24" xml:space="preserve">
<path d="M18.117,9.059h-1.176V6.706c0-2.594-2.11-4.706-4.706-4.706C9.64,2,7.529,4.112,7.529,6.706v2.353H6.353
	C5.055,9.059,4,10.113,4,11.412v8.235C4,20.945,5.055,22,6.353,22h11.764c1.299,0,2.354-1.055,2.354-2.353v-8.235
	C20.471,10.113,19.416,9.059,18.117,9.059z M12.235,18.822c-0.846,0-1.529-0.683-1.529-1.528s0.684-1.53,1.529-1.53
	s1.529,0.685,1.529,1.53S13.081,18.822,12.235,18.822z M14.588,10.235H9.882V6.706c0-1.299,1.055-2.353,2.353-2.353
	s2.353,1.054,2.353,2.353V10.235z"/>
</svg>
