<?xml version="1.0" encoding="utf-8"?>
<!-- Generator: Adobe Illustrator 16.0.0, SVG Export Plug-In . SVG Version: 6.00 Build 0)  -->
<!DOCTYPE svg PUBLIC "-//W3C//DTD SVG 1.1//EN" "http://www.w3.org/Graphics/SVG/1.1/DTD/svg11.dtd">
<svg version="1.1" id="Layer_1" xmlns="http://www.w3.org/2000/svg" xmlns:xlink="http://www.w3.org/1999/xlink" x="0px" y="0px"
	 width="24px" height="24px" viewBox="0 0 24 24" enable-background="new 0 0 24 24" xml:space="preserve">
<path d="M17.294,2c-2.595,0-4.706,2.112-4.706,4.706v3.529H7.882V9.059H4.353C3.055,9.059,2,10.113,2,11.412v8.235
	C2,20.945,3.055,22,4.353,22h11.764c1.299,0,2.354-1.055,2.354-2.353v-8.235c0-1.299-1.055-2.354-2.354-2.354h-1.176V6.706
	c0-1.299,1.055-2.353,2.353-2.353c1.299,0,2.354,1.054,2.354,2.353v3.529c0,0.65,0.527,1.177,1.176,1.177
	c0.649,0,1.177-0.526,1.177-1.177V6.706C22,4.112,19.89,2,17.294,2z M10.235,18.822c-0.846,0-1.529-0.683-1.529-1.528
	s0.684-1.53,1.529-1.53s1.529,0.685,1.529,1.53S11.081,18.822,10.235,18.822z"/>
</svg>
