<?xml version="1.0" encoding="utf-8"?>
<!-- Generator: Adobe Illustrator 16.0.0, SVG Export Plug-In . SVG Version: 6.00 Build 0)  -->
<!DOCTYPE svg PUBLIC "-//W3C//DTD SVG 1.1//EN" "http://www.w3.org/Graphics/SVG/1.1/DTD/svg11.dtd">
<svg version="1.1" id="Layer_1" xmlns="http://www.w3.org/2000/svg" xmlns:xlink="http://www.w3.org/1999/xlink" x="0px" y="0px"
	 width="79.52px" height="79.52px" viewBox="0 0 79.52 79.52" enable-background="new 0 0 79.52 79.52" xml:space="preserve">
<g>
	<path d="M66.353,9.021L66.353,9.021C66.353,9.021,66.171,9.021,66.353,9.021c-0.541-0.902-1.443-1.262-2.344-1.262l0,0H15.511l0,0
		c-1.623,0-2.885,1.262-2.885,2.885l0,0v2.524v9.375v5.228v9.375v5.227v9.375v5.229v9.374v2.524l0,0c0,0.541,0.18,1.082,0.541,1.624
		l0,0l0,0c0.541,0.721,1.442,1.261,2.344,1.261l0,0h48.498l0,0c1.622,0,2.884-1.261,2.884-2.885l0,0V66.35v-9.372V51.75v-9.377
		v-5.227v-9.375v-5.228v-9.375v-2.524l0,0C66.711,9.923,66.532,9.561,66.353,9.021z M31.016,62.747c0,0.721-0.541,1.262-1.261,1.262
		h-6.67c-0.722,0-1.262-0.541-1.262-1.262v-2.885c0-0.721,0.541-1.262,1.262-1.262h6.67c0.721,0,1.261,0.541,1.261,1.262V62.747z
		 M31.016,53.012c0,0.721-0.541,1.261-1.261,1.261h-6.67c-0.722,0-1.262-0.54-1.262-1.261v-2.885c0-0.721,0.541-1.263,1.262-1.263
		h6.67c0.721,0,1.261,0.542,1.261,1.263V53.012z M31.016,43.456c0,0.722-0.541,1.261-1.261,1.261h-6.67
		c-0.722,0-1.262-0.541-1.262-1.261v-2.885c0-0.721,0.541-1.261,1.262-1.261h6.67c0.721,0,1.261,0.541,1.261,1.261V43.456z
		 M44.176,62.747c0,0.721-0.541,1.262-1.261,1.262h-6.671c-0.721,0-1.262-0.541-1.262-1.262v-2.885c0-0.721,0.542-1.262,1.262-1.262
		h6.671c0.722,0,1.261,0.541,1.261,1.262V62.747z M44.176,53.012c0,0.721-0.541,1.261-1.261,1.261h-6.671
		c-0.721,0-1.262-0.54-1.262-1.261v-2.885c0-0.721,0.542-1.263,1.262-1.263h6.671c0.722,0,1.261,0.542,1.261,1.263V53.012z
		 M44.176,43.456c0,0.722-0.541,1.261-1.261,1.261h-6.671c-0.721,0-1.262-0.541-1.262-1.261v-2.885c0-0.721,0.542-1.261,1.262-1.261
		h6.671c0.722,0,1.261,0.541,1.261,1.261V43.456z M57.517,62.747c0,0.721-0.54,1.262-1.261,1.262h-6.67
		c-0.722,0-1.262-0.541-1.262-1.262v-2.885c0-0.721,0.54-1.262,1.262-1.262h6.67c0.721,0,1.261,0.541,1.261,1.262V62.747z
		 M57.517,53.012c0,0.721-0.54,1.261-1.261,1.261h-6.67c-0.722,0-1.262-0.54-1.262-1.261v-2.885c0-0.721,0.54-1.263,1.262-1.263
		h6.67c0.721,0,1.261,0.542,1.261,1.263V53.012z M57.517,43.456c0,0.722-0.54,1.261-1.261,1.261h-6.67
		c-0.722,0-1.262-0.541-1.262-1.261v-2.885c0-0.721,0.54-1.261,1.262-1.261h6.67c0.721,0,1.261,0.541,1.261,1.261V43.456z
		 M58.058,33.36L58.058,33.36c0,0.722-0.542,1.261-1.262,1.261H22.362c-0.721,0-1.261-0.541-1.261-1.261V16.594
		c0-0.721,0.541-1.261,1.261-1.261h34.434c0.721,0,1.262,0.541,1.262,1.261V33.36z"/>
	<path d="M30.655,23.624c-1.26-0.541-1.801-0.722-1.801-1.262c0-0.36,0.358-0.721,1.26-0.721c1.083,0,1.625,0.36,1.984,0.541
		l0.36-1.623c-0.541-0.18-1.082-0.36-1.983-0.541v-1.261h-1.442v1.442c-1.442,0.36-2.344,1.262-2.344,2.524
		c0,1.443,1.082,2.163,2.523,2.525c1.084,0.36,1.442,0.721,1.442,1.261s-0.541,0.902-1.442,0.902c-0.9,0-1.8-0.361-2.342-0.541
		l-0.36,1.623c0.541,0.359,1.442,0.541,2.344,0.541v1.442h1.442v-1.624c1.623-0.359,2.524-1.441,2.524-2.703
		C32.999,25.067,32.278,24.166,30.655,23.624z"/>
	<path d="M40.391,23.624c-1.262-0.541-1.803-0.722-1.803-1.262c0-0.36,0.361-0.721,1.262-0.721c1.082,0,1.623,0.36,1.982,0.541
		l0.361-1.623c-0.542-0.18-1.082-0.36-1.984-0.541v-1.261h-1.442v1.442c-1.442,0.36-2.343,1.262-2.343,2.524
		c0,1.443,1.083,2.163,2.525,2.525c1.082,0.36,1.442,0.721,1.442,1.261s-0.542,0.902-1.442,0.902c-0.901,0-1.803-0.361-2.344-0.541
		l-0.361,1.623c0.541,0.359,1.442,0.541,2.344,0.541v1.442h1.442v-1.624c1.623-0.359,2.524-1.441,2.524-2.703
		C42.915,25.067,42.194,24.166,40.391,23.624z"/>
	<path d="M50.307,23.624c-1.261-0.541-1.801-0.722-1.801-1.262c0-0.36,0.358-0.721,1.26-0.721c1.083,0,1.624,0.36,1.982,0.541
		l0.361-1.623c-0.541-0.18-1.082-0.36-1.983-0.541v-1.261h-1.442v1.442c-1.442,0.36-2.344,1.262-2.344,2.524
		c0,1.443,1.082,2.163,2.524,2.525c1.083,0.36,1.442,0.721,1.442,1.261s-0.541,0.902-1.442,0.902c-0.9,0-1.803-0.361-2.344-0.541
		l-0.359,1.622c0.54,0.359,1.441,0.541,2.343,0.541v1.442h1.441v-1.624c1.624-0.359,2.525-1.441,2.525-2.703
		C52.651,25.067,51.93,24.166,50.307,23.624z"/>
</g>
</svg>
