<?xml version="1.0" encoding="utf-8"?>
<!-- Generator: Adobe Illustrator 16.0.0, SVG Export Plug-In . SVG Version: 6.00 Build 0)  -->
<!DOCTYPE svg PUBLIC "-//W3C//DTD SVG 1.1 Tiny//EN" "http://www.w3.org/Graphics/SVG/1.1/DTD/svg11-tiny.dtd">
<svg version="1.1" baseProfile="tiny" id="Camada_1"
	 xmlns="http://www.w3.org/2000/svg" xmlns:xlink="http://www.w3.org/1999/xlink" x="0px" y="0px" width="256px" height="256px"
	 viewBox="0 0 256 256" xml:space="preserve">
<g id="_x23_333333ff">
	<path d="M0,50.26c40.76-16.1,81.51-32.22,122.28-48.29c44.64,15.9,89.14,32.22,133.72,48.28V182.7
		c-36.02,24.159-72.04,48.31-108.08,72.44C98.54,231.09,49.31,206.721,0,182.52V50.26 M95.7,33.5
		c35.76,13.82,71.479,27.73,107.229,41.59c1.35,0.47,2.641,1.18,4.07,1.38c8.71-4.43,17.3-9.1,25.939-13.66
		C196.2,49.59,159.51,36.25,122.78,23C113.71,26.37,104.81,30.23,95.7,33.5 M33.89,58.15c39.72,15.51,79.46,30.99,119.19,46.48
		l0.76,0.06c10.02-5.32,20.051-10.6,30.061-15.92C145.561,74.03,107.34,59.01,69,44.29C57.24,48.72,45.5,53.35,33.89,58.15
		 M19.73,63.52c-0.09,35.56-0.03,71.13-0.02,106.69c41.78,20.64,83.64,41.12,125.45,61.69c1.29,1.279,2.93-0.59,2.529-1.94
		c-0.029-38.931,0.041-77.851-0.029-116.78C106.54,96.93,65.27,81.03,24.1,64.9C22.67,64.38,21.28,63.64,19.73,63.52z"/>
	<path d="M49.45,123.44c4.9-6.12,9.64-12.36,14.52-18.5c4.96,9.43,9.9,18.87,14.82,28.33c-3.29-1.06-6.54-2.199-9.84-3.229
		c-0.04,9.149,0.02,18.29-0.02,27.44c-3.29-1.221-6.57-2.471-9.84-3.73c-0.08-8.98,0.01-17.95-0.04-26.93
		C55.92,125.52,52.55,124.82,49.45,123.44z"/>
	<path d="M88.56,137.689c4.92-6.39,9.84-12.79,14.83-19.12c4.84,9.61,9.71,19.2,14.52,28.821c-3.2-1.051-6.41-2.101-9.6-3.19
		c0,10.069,0.02,20.14-0.01,30.22c-3.28-1.24-6.57-2.449-9.82-3.77c-0.06-9.881,0.06-19.76-0.06-29.641
		C95.17,139.79,91.83,138.83,88.56,137.689z"/>
	<path d="M49.23,157.75c22.98,10.8,45.93,21.641,68.88,32.5c0.1,4.04,0.04,8.08,0.03,12.12c-22.99-10.81-45.97-21.62-68.91-32.54
		C49.2,165.8,49.21,161.77,49.23,157.75z"/>
</g>
</svg>
