<?xml version="1.0" encoding="utf-8"?>
<!-- Generator: Adobe Illustrator 16.0.0, SVG Export Plug-In . SVG Version: 6.00 Build 0)  -->
<!DOCTYPE svg PUBLIC "-//W3C//DTD SVG 1.1//EN" "http://www.w3.org/Graphics/SVG/1.1/DTD/svg11.dtd">
<svg version="1.1" id="Layer_1" xmlns="http://www.w3.org/2000/svg" xmlns:xlink="http://www.w3.org/1999/xlink" x="0px" y="0px"
	 width="24px" height="24px" viewBox="0 0 24 24" enable-background="new 0 0 24 24" xml:space="preserve">
<g>
	<path d="M8.317,13.524c1.45,0,2.77-0.59,3.722-1.542c0.948-0.948,1.538-2.268,1.538-3.718c0-1.455-0.59-2.77-1.538-3.722
		C11.087,3.59,9.768,3,8.317,3c-1.455,0-2.77,0.59-3.722,1.542C3.643,5.495,3.053,6.81,3.053,8.264c0,1.451,0.59,2.77,1.542,3.718
		C5.547,12.935,6.862,13.524,8.317,13.524z"/>
	<path d="M8.317,20.895c3.7,0,6.313-1.053,6.313-2.106c0-2.105-2.477-4.211-6.313-4.211C4.368,14.577,2,16.683,2,18.788
		C2,19.842,4.368,20.895,8.317,20.895z"/>
	<path d="M20.947,11.423h-2.105V9.317c0-0.585-0.473-1.053-1.054-1.053s-1.053,0.468-1.053,1.053v2.105H14.63
		c-0.581,0-1.053,0.468-1.053,1.049c0,0.585,0.472,1.053,1.053,1.053h2.105v2.105c0,0.581,0.472,1.053,1.053,1.053
		s1.054-0.472,1.054-1.053v-2.105h2.105c0.581,0,1.053-0.468,1.053-1.053C22,11.891,21.528,11.423,20.947,11.423z"/>
</g>
</svg>
