<?xml version="1.0" encoding="utf-8"?>
<!-- Generator: Adobe Illustrator 16.0.0, SVG Export Plug-In . SVG Version: 6.00 Build 0)  -->
<!DOCTYPE svg PUBLIC "-//W3C//DTD SVG 1.1//EN" "http://www.w3.org/Graphics/SVG/1.1/DTD/svg11.dtd">
<svg version="1.1" id="Layer_1" xmlns="http://www.w3.org/2000/svg" xmlns:xlink="http://www.w3.org/1999/xlink" x="0px" y="0px"
	 width="24px" height="24px" viewBox="0 0 24 24" enable-background="new 0 0 24 24" xml:space="preserve">
<g>
	<path d="M17.941,7.882c0-1.625-0.66-3.095-1.723-4.159C15.154,2.659,13.684,2,12.059,2c-1.625,0-3.095,0.659-4.16,1.723
		C6.835,4.787,6.176,6.258,6.176,7.882s0.659,3.095,1.722,4.159c1.065,1.064,2.536,1.724,4.16,1.724c1.625,0,3.096-0.659,4.16-1.724
		C17.281,10.978,17.941,9.507,17.941,7.882z"/>
	<path d="M5,19.647C5,20.823,7.647,22,12.059,22c4.139,0,7.059-1.177,7.059-2.353c0-2.354-2.769-4.706-7.059-4.706
		C7.647,14.941,5,17.294,5,19.647z"/>
</g>
</svg>
