<?xml version="1.0" encoding="utf-8"?>
<!-- Generator: Adobe Illustrator 16.0.0, SVG Export Plug-In . SVG Version: 6.00 Build 0)  -->
<!DOCTYPE svg PUBLIC "-//W3C//DTD SVG 1.1//EN" "http://www.w3.org/Graphics/SVG/1.1/DTD/svg11.dtd">
<svg version="1.1" id="Layer_1" xmlns="http://www.w3.org/2000/svg" xmlns:xlink="http://www.w3.org/1999/xlink" x="0px" y="0px"
	 width="24px" height="24px" viewBox="0 0 24 24" enable-background="new 0 0 24 24" xml:space="preserve">
<g>
	<path d="M21.82,12.43c-0.082-0.119-2.062-2.944-4.793-4.875C15.611,6.552,13.826,6,12,6c-1.825,0-3.611,0.552-5.03,1.555
		c-2.731,1.931-4.708,4.756-4.791,4.875c-0.238,0.343-0.238,0.798,0,1.14c0.083,0.119,2.06,2.945,4.791,4.875
		C8.389,19.447,10.175,20,12,20c1.826,0,3.611-0.553,5.027-1.555c2.731-1.932,4.711-4.756,4.793-4.875
		C22.061,13.229,22.061,12.771,21.82,12.43z M12,16.5c-1.934,0-3.5-1.57-3.5-3.5c0-1.934,1.566-3.5,3.5-3.5
		c1.93,0,3.5,1.566,3.5,3.5C15.5,14.93,13.93,16.5,12,16.5z"/>
	<g>
		<path d="M14,13c0,1.102-0.898,2-2,2c-1.105,0-2-0.898-2-2c0-1.105,0.895-2,2-2C13.102,11,14,11.895,14,13z"/>
	</g>
</g>
</svg>
